<svg xmlns="http://www.w3.org/2000/svg" viewBox="0 0 167.719 37.211">
  <g id="icon" transform="translate(0 0.033)">
    <rect id="Rectangle_1" data-name="Rectangle 1" width="9.052" height="37.207" transform="translate(81.275 -0.03)"/>
    <rect id="Rectangle_2" data-name="Rectangle 2" width="9.052" height="37.207" transform="translate(97.324 -0.03)"/>
    <rect id="Rectangle_3" data-name="Rectangle 3" width="7.762" height="29.273" transform="translate(126.593 -0.031) rotate(90)"/>
    <rect id="Rectangle_4" data-name="Rectangle 4" width="7.762" height="28.359" transform="translate(125.685 13.696) rotate(90)"/>
    <rect id="Rectangle_5" data-name="Rectangle 5" width="7.762" height="30.588" transform="translate(127.913 29.41) rotate(90)"/>
    <rect id="Rectangle_6" data-name="Rectangle 6" width="9.052" height="37.207" transform="translate(133.595 -0.03)"/>
    <path id="Path_69" data-name="Path 69" d="M1421.7,162.3l6.535-6.1,15.238,21.17h-11.518Z" transform="translate(-1275.754 -140.193)"/>
    <path id="Path_70" data-name="Path 70" d="M1388.2,15.071V27.2L1412.521,0h-11.487Z" transform="translate(-1245.697 -0.03)"/>
    <path id="Path_71" data-name="Path 71" d="M387.6,37.207h9.165l7.809-30.483L397.536,0Z" transform="translate(-347.774 -0.03)"/>
    <rect id="Rectangle_7" data-name="Rectangle 7" width="7.762" height="17.724" transform="translate(67.483 -0.033) rotate(90)"/>
    <rect id="Rectangle_8" data-name="Rectangle 8" width="7.762" height="25.944" transform="translate(71.929 21.647) rotate(90)"/>
    <path id="Path_72" data-name="Path 72" d="M605.274,37.207h-9.165L588.3,6.725,595.338,0Z" transform="translate(-527.852 -0.03)"/>
    <rect id="Rectangle_9" data-name="Rectangle 9" width="9.052" height="37.207" transform="translate(0 -0.03)"/>
    <rect id="Rectangle_10" data-name="Rectangle 10" width="9.052" height="37.207" transform="translate(27.146 -0.03)"/>
    <rect id="Rectangle_11" data-name="Rectangle 11" width="7.762" height="29.273" transform="translate(31.668 13.582) rotate(90)"/>
  </g>
</svg>
